# xmcd CD database file
#
# Track frame offsets:
#	150
#	20349
#	45138
#	64148
#	83210
#	103873
#	116665
#	137420
#	157818
#	176930
#	189506
#	202446
#	223805
#	245202
#	269009
#	285055
#
# Disc length: 4013 seconds
#
# Revision: 0
# Processed by: cddbd v1.4PL0 Copyright (c) Steve Scherf et al.
# Submitted via: CDex 1.40Beta9
#
DISCID=ed0fab10
DTITLE=West Rock  - Shanda Lá lêra Candá
DYEAR=2001
DGENRE=Country
TTITLE0=He Thinks he'll keep her
TTITLE1=I Don't Wanna Miss a Thing
TTITLE2=Como viver (Bonus Track)
TTITLE3=A Malvada
TTITLE4=I Wear Your Love
TTITLE5=Vem Dançar (Bonus Track)
TTITLE6=One of Those Nights
TTITLE7=Losing My Religion
TTITLE8=Ainda Importa Pra Mim
TTITLE9=Hole In My Heart
TTITLE10=It's a Little Too Late
TTITLE11=Love Is On Our Side
TTITLE12=Footloose
TTITLE13=Sem a Sombra da Dor
TTITLE14=Benção dos Cowboys
TTITLE15=Toss the Feathers (Bonus Track)
EXTD=YEAR: 2001 ID3G: 2
EXTT0=
EXTT1=
EXTT2=
EXTT3=
EXTT4=
EXTT5=
EXTT6=
EXTT7=
EXTT8=
EXTT9=
EXTT10=
EXTT11=
EXTT12=
EXTT13=
EXTT14=
EXTT15=
PLAYORDER=
